<?xml version="1.0" standalone="no"?>
<!DOCTYPE svg PUBLIC "-//W3C//DTD SVG 20010904//EN"
 "http://www.w3.org/TR/2001/REC-SVG-20010904/DTD/svg10.dtd">
<svg version="1.0" xmlns="http://www.w3.org/2000/svg"
 width="512.000000pt" height="512.000000pt" viewBox="0 0 512.000000 512.000000"
 preserveAspectRatio="xMidYMid meet">
<metadata>
Created by potrace 1.11, written by Peter Selinger 2001-2013
</metadata>
<g transform="translate(0.000000,512.000000) scale(0.100000,-0.100000)"
fill="#000000" stroke="none">
<path d="M610 2885 l0 -1305 275 0 275 0 0 121 0 121 81 -75 c148 -138 308
-199 519 -198 289 0 533 130 697 371 227 335 228 897 2 1233 -161 240 -417
377 -704 377 -227 0 -393 -74 -540 -241 l-50 -56 -3 478 -2 479 -275 0 -275 0
0 -1305z m1143 165 c148 -46 268 -180 311 -347 20 -78 21 -250 1 -326 -57
-221 -235 -367 -445 -367 -150 0 -266 57 -355 173 -162 212 -150 549 25 740
121 133 292 180 463 127z"/>
<path d="M3752 3510 c-133 -35 -247 -107 -347 -221 l-50 -57 -3 134 -3 134
-274 0 -275 0 0 -1245 0 -1245 275 0 275 0 0 406 0 406 81 -75 c148 -138 308
-199 519 -198 289 0 533 130 697 371 194 286 227 748 79 1091 -108 250 -317
430 -574 495 -122 31 -290 33 -400 4z m191 -460 c148 -46 268 -180 311 -347
20 -78 21 -250 1 -326 -57 -221 -235 -367 -445 -367 -150 0 -266 57 -355 173
-162 212 -150 549 25 740 121 133 292 180 463 127z"/>
</g>
</svg>
