<?xml version="1.0" standalone="no"?>
<!DOCTYPE svg PUBLIC "-//W3C//DTD SVG 20010904//EN"
 "http://www.w3.org/TR/2001/REC-SVG-20010904/DTD/svg10.dtd">
<svg version="1.0" xmlns="http://www.w3.org/2000/svg"
 width="512.000000pt" height="512.000000pt" viewBox="0 0 512.000000 512.000000"
 preserveAspectRatio="xMidYMid meet">
<metadata>
Created by potrace 1.11, written by Peter Selinger 2001-2013
</metadata>
<g transform="translate(0.000000,512.000000) scale(0.100000,-0.100000)"
fill="#000000" stroke="none">
<path d="M618 4190 c0 -3 -2 -591 -3 -1307 l-1 -1303 272 0 272 0 -1 120 c-1
66 1 119 4 118 4 -2 44 -38 89 -80 46 -43 88 -78 94 -78 6 0 27 -11 46 -24 31
-21 169 -76 188 -75 4 0 30 -3 57 -7 316 -45 637 94 812 351 128 189 183 393
178 660 -10 519 -288 877 -745 961 -19 3 -75 6 -125 6 -234 -2 -417 -89 -562
-267 -18 -22 -33 -35 -34 -30 0 6 -1 223 -2 484 l-2 474 -268 1 c-147 1 -268
-1 -269 -4z m1139 -1141 c110 -38 213 -131 270 -244 54 -108 71 -298 38 -425
-60 -231 -248 -380 -469 -372 -249 10 -431 217 -442 502 -10 274 124 485 346
547 64 18 194 14 257 -8z"/>
<path d="M3929 3536 c-2 -3 -29 -5 -59 -7 -178 -8 -370 -113 -492 -269 l-28
-35 0 35 c-1 19 -1 81 -2 138 l0 102 -272 0 -272 0 0 -1245 c0 -1118 2 -1245
15 -1246 20 -1 443 0 493 0 l38 1 0 348 c-1 191 0 375 0 409 l0 62 52 -55
c114 -121 251 -193 418 -220 49 -8 207 -8 255 0 280 48 504 214 631 466 26 52
86 220 79 220 -3 0 0 11 4 24 27 69 34 396 12 496 -7 30 -15 68 -18 85 -3 16
-18 65 -34 109 -73 201 -205 362 -385 469 -75 45 -223 94 -307 102 -34 4 -76
8 -93 10 -17 3 -33 3 -35 1z m13 -487 c174 -58 299 -217 325 -412 11 -80 6
-191 -11 -257 -78 -305 -380 -456 -651 -324 -118 57 -215 190 -251 345 -12 51
-12 207 0 269 16 83 56 171 103 229 45 55 53 62 120 107 99 65 248 83 365 43z"/>
</g>
</svg>
