<svg width="1600" height="900" fill="none" xmlns="http://www.w3.org/2000/svg"><path fill="#5E35D2" d="M0 0h1600v900H0z"/><path d="M957.464 504.672H939.48v4.736h17.984v-4.736zm60.096-21.216c-4.23-2.912-9.38-4.896-16.13-4.896-9.439 0-17.119 4.832-17.119 13.472 0 7.648 5.888 11.072 13.28 11.968l4.159.512c6.98.864 10.72 2.848 10.72 7.008 0 5.056-5.25 7.776-11.94 7.776-5.691 0-11.483-2.272-14.587-4.96l-3.072 4.48c4.32 3.616 11.296 5.824 17.659 5.824 9.7 0 17.8-4.672 17.8-13.6 0-7.904-6.5-10.976-14.08-11.904l-3.94-.48c-6.719-.832-10.143-2.912-10.143-6.976 0-4.832 4.672-7.776 11.233-7.776 5.18 0 9.63 1.664 13.28 4.128l2.88-4.576zm24.24 9.504c-9.22 0-16.07 6.816-16.07 15.84 0 9.024 6.85 15.84 16.07 15.84 9.21 0 16.09-6.816 16.09-15.84 0-9.024-6.88-15.84-16.09-15.84zm0 4.928c6.08 0 10.72 4.544 10.72 10.912 0 6.368-4.64 10.944-10.72 10.944-6.12 0-10.72-4.576-10.72-10.944 0-6.368 4.6-10.912 10.72-10.912zm38.33-4.928c-9.4 0-15.77 6.816-15.77 15.84 0 9.024 6.37 15.84 15.77 15.84 4.52 0 8.55-1.664 11.3-4.768l-3.23-3.616c-2.11 2.048-4.96 3.488-8.19 3.488-5.86 0-10.31-4.576-10.31-10.944 0-6.368 4.45-10.912 10.31-10.912 3.23 0 5.82 1.248 8.06 3.424l3.36-3.552c-2.72-3.136-6.78-4.8-11.3-4.8zm33.39 0c-3.61 0-6.78 1.664-8.89 4.64v-4h-5.16V524h5.22v-16.928c0-5.6 3.26-9.152 7.9-9.152 1.73 0 3.78.416 5.22 1.184l1.28-5.152c-1.63-.704-3.39-.992-5.57-.992zm40.38.64h-5.25v4.096c-2.4-2.88-5.95-4.736-10.72-4.736-8.54 0-15.2 6.656-15.2 15.84 0 9.184 6.66 15.84 15.2 15.84 4.77 0 8.32-1.856 10.72-4.704V524h5.25v-30.4zm-15.36 4.288c6.14 0 10.43 4.704 10.43 10.912 0 6.24-4.29 10.944-10.43 10.944-6.24 0-10.46-4.896-10.46-10.944 0-6.048 4.12-10.912 10.46-10.912zm47.07-4.288h-12.76v-9.536h-5.25v9.536h-6.5v4.768h6.5v14.912c0 7.744 3.93 11.36 10.53 11.36 3.74 0 6.78-1.312 9.12-3.008l-2.47-3.936c-1.73 1.184-3.97 2.048-6.21 2.048-3.29 0-5.72-1.984-5.72-6.56v-14.816h12.76V493.6zm21.1-.64c-8.73 0-15.1 6.496-15.1 15.84 0 9.472 6.4 15.84 15.42 15.84 4.48 0 8.71-1.088 12.48-4.608l-2.78-3.584c-2.59 2.24-5.83 3.616-9.38 3.616-5.21 0-9.6-3.104-10.33-9.408h23.9c.03-.576.1-1.28.1-1.952-.07-9.312-6.02-15.744-14.31-15.744zm-.09 4.64c4.92 0 8.41 3.456 9.05 8.832h-18.59c.8-5.184 4.16-8.832 9.54-8.832zm45.92-1.312c-2.95-2.016-7.33-3.296-12.13-3.296-7.39 0-12.22 3.52-12.22 9.344 0 4.608 3.29 7.68 10.11 8.512l3.52.416c4.13.512 6.11 1.92 6.11 4.16 0 3.008-3.07 4.64-8.06 4.64-5.09 0-8.13-1.472-10.4-3.232l-2.44 3.904c4 3.008 9.06 3.904 12.8 3.904 8.29 0 13.48-3.744 13.48-9.536 0-5.024-3.81-7.744-10.28-8.608l-3.52-.448c-3.68-.448-5.88-1.568-5.88-4 0-2.752 2.68-4.512 6.84-4.512 4 0 7.88 1.504 9.8 2.816l2.27-4.064z" fill="#E5E5E5"/><path d="M287.128 382.6h-14.364L253.432 433h12.564l3.816-10.584h20.016L293.644 433h12.816l-19.332-50.4zm-7.308 11.952l6.12 16.992H273.7l6.12-16.992zm42.267-13.392h-11.268V433h11.268v-51.84zm19.125 0h-11.268V433h11.268v-51.84zm36.665 1.44h-12.024V433h12.024v-50.4zm35.968-1.44h-11.268V433h11.268v-13.644h2.412L424.969 433h13.608l-13.104-18.648 13.068-16.668h-13.644l-8.352 11.7h-2.7V381.16zm49.841 15.552c-4.716 0-8.28 1.692-10.512 5.4v-4.428h-10.8V433h11.268v-19.008c0-4.572 2.592-6.696 5.724-6.696 3.492 0 5.58 2.34 5.58 6.516V433h11.268v-23.184c0-8.172-5.472-13.104-12.528-13.104zm37.452 0c-11.016 0-19.152 7.92-19.152 18.612 0 10.692 8.136 18.612 19.152 18.612 11.052 0 19.188-7.92 19.188-18.612 0-10.692-8.136-18.612-19.188-18.612zm0 10.512c4.428 0 7.668 3.348 7.668 8.1s-3.24 8.1-7.668 8.1c-4.392 0-7.632-3.348-7.632-8.1s3.24-8.1 7.632-8.1zm57.661-9.54h-11.268l-7.128 22.428-6.804-22.428h-11.988L533.815 433h12.492l6.804-21.132L559.987 433h12.564l12.168-35.316h-11.844l-6.876 22.536-7.2-22.536zm57.687 0h-11.268V433h11.268v-35.316zm-5.688-17.64c-3.816 0-6.732 2.952-6.732 6.768 0 3.78 2.916 6.696 6.732 6.696 3.78 0 6.732-2.916 6.732-6.696 0-3.816-2.952-6.768-6.732-6.768zm43.245 19.728c-5.796-2.232-9.468-3.024-15.192-3.024-9.612 0-15.264 4.284-15.264 11.808 0 6.336 3.96 9.864 12.456 11.124l2.052.288c3.996.612 5.58 1.152 5.58 2.52 0 1.512-1.44 2.304-4.932 2.304-4.896 0-8.928-1.224-12.456-3.312l-3.924 8.712c4.032 2.628 10.26 3.708 16.308 3.708 10.296 0 16.344-4.644 16.344-12.384 0-5.94-3.996-9.576-11.556-10.728l-2.592-.396c-3.456-.54-5.688-.9-5.688-2.412 0-1.296 1.152-2.16 4.104-2.16 3.6.036 8.136 1.26 11.628 2.736l3.132-8.784zm50.108-2.088h-12.06v-10.296h-11.268v10.296h-6.588v9.972h6.588v11.772c0 8.856 4.284 14.508 13.752 14.508 5.688 0 9.216-1.62 12.528-3.924l-3.888-8.784c-1.764 1.044-4.032 2.196-6.12 2.196-2.844 0-5.004-1.368-5.004-5.436v-10.332h12.06v-9.972zm18.647-16.56H711.53V433h11.268v-19.008c0-4.572 2.592-6.696 5.724-6.696 3.492 0 5.58 2.34 5.58 6.516V433h11.268v-23.184c0-8.172-5.472-13.104-12.528-13.104-4.392 0-7.812 1.476-10.044 4.68v-20.268zm65.821 16.56h-10.908v3.816c-2.124-2.772-5.364-4.788-10.116-4.788-9.468 0-16.452 8.208-16.452 18.576 0 10.44 6.984 18.648 16.416 18.648 4.788 0 8.028-1.98 10.152-4.752V433h10.908v-35.316zm-18.36 9.54c4.428 0 7.56 3.42 7.56 8.1s-3.132 8.1-7.56 8.1c-4.5 0-7.524-3.492-7.524-8.1s3.024-8.1 7.524-8.1zm53.353-9.54h-12.06v-10.296h-11.268v10.296h-6.588v9.972h6.588v11.772c0 8.856 4.284 14.508 13.752 14.508 5.688 0 9.216-1.62 12.528-3.924l-3.888-8.784c-1.764 1.044-4.032 2.196-6.12 2.196-2.844 0-5.004-1.368-5.004-5.436v-10.332h12.06v-9.972zm36.187-15.084h-12.024V433h12.024v-50.4zm35.968-1.44h-11.268V433h11.268v-13.644h2.412L906.891 433h13.608l-13.104-18.648 13.068-16.668h-13.644l-8.352 11.7h-2.7V381.16zm49.841 15.552c-4.716 0-8.28 1.692-10.512 5.4v-4.428h-10.8V433h11.268v-19.008c0-4.572 2.592-6.696 5.724-6.696 3.492 0 5.58 2.34 5.58 6.516V433h11.268v-23.184c0-8.172-5.472-13.104-12.528-13.104zm37.452 0c-11.016 0-19.152 7.92-19.152 18.612 0 10.692 8.136 18.612 19.152 18.612 11.052 0 19.19-7.92 19.19-18.612 0-10.692-8.138-18.612-19.19-18.612zm0 10.512c4.428 0 7.668 3.348 7.668 8.1s-3.24 8.1-7.668 8.1c-4.392 0-7.632-3.348-7.632-8.1s3.24-8.1 7.632-8.1zm57.66-9.54h-11.27l-7.13 22.428-6.8-22.428h-11.99L1015.74 433h12.49l6.8-21.132 6.88 21.132h12.56l12.17-35.316h-11.84l-6.88 22.536-7.2-22.536zm67.73-.972c-4.71 0-8.28 1.692-10.51 5.4v-4.428h-10.8V433h11.27v-19.008c0-4.572 2.59-6.696 5.72-6.696 3.49 0 5.58 2.34 5.58 6.516V433h11.27v-23.184c0-8.172-5.47-13.104-12.53-13.104zm37.45 0c-11.01 0-19.15 7.92-19.15 18.612 0 10.692 8.14 18.612 19.15 18.612 11.06 0 19.19-7.92 19.19-18.612 0-10.692-8.13-18.612-19.19-18.612zm0 10.512c4.43 0 7.67 3.348 7.67 8.1s-3.24 8.1-7.67 8.1c-4.39 0-7.63-3.348-7.63-8.1s3.24-8.1 7.63-8.1zm52.06-9.54h-12.06v-10.296h-11.27v10.296h-6.59v9.972h6.59v11.772c0 8.856 4.28 14.508 13.75 14.508 5.69 0 9.22-1.62 12.53-3.924l-3.89-8.784c-1.76 1.044-4.03 2.196-6.12 2.196-2.84 0-5-1.368-5-5.436v-10.332h12.06v-9.972zm18.64-16.56h-11.26V433h11.26v-19.008c0-4.572 2.6-6.696 5.73-6.696 3.49 0 5.58 2.34 5.58 6.516V433h11.27v-23.184c0-8.172-5.48-13.104-12.53-13.104-4.39 0-7.81 1.476-10.05 4.68v-20.268zm41.49 16.56h-11.27V433h11.27v-35.316zm-5.69-17.64c-3.82 0-6.73 2.952-6.73 6.768 0 3.78 2.91 6.696 6.73 6.696 3.78 0 6.73-2.916 6.73-6.696 0-3.816-2.95-6.768-6.73-6.768zm34.86 16.668c-4.72 0-8.28 1.692-10.52 5.4v-4.428h-10.8V433h11.27v-19.008c0-4.572 2.59-6.696 5.73-6.696 3.49 0 5.58 2.34 5.58 6.516V433h11.26v-23.184c0-8.172-5.47-13.104-12.52-13.104zm34.68 0c-9.47 0-16.38 7.848-16.38 17.856 0 10.008 6.91 17.82 16.38 17.82 4.53 0 7.63-1.8 9.72-4.464v2.196c0 5.616-4.32 8.136-8.9 8.136-4.17 0-7.88-1.152-11.34-3.6l-3.99 8.964c4.21 2.988 10.22 4.5 16.13 4.5 11.55 0 19.15-6.912 19.15-18.504v-31.932h-10.91v3.672c-2.09-2.736-5.22-4.644-9.86-4.644zm2.66 10.296c4.25 0 7.2 3.204 7.2 7.56s-2.95 7.56-7.2 7.56c-4.39 0-7.42-3.276-7.42-7.56 0-4.32 3.03-7.56 7.42-7.56z" fill="#fff"/></svg>