<svg width="1600" height="900" fill="none" xmlns="http://www.w3.org/2000/svg"><path fill="#570C71" d="M0 0h1600v900H0z"/><path d="M446.048 385.56l2.844-23.4h-9.396l-5.76 23.4h12.312zm17.208 0l2.844-23.4h-9.396l-5.76 23.4h12.312zm46.223-1.692h-24.336v-9.432h26.064V363.6h-38.088V414h12.024v-19.26h24.336v-10.872zm24.675-6.156c-11.016 0-19.152 7.92-19.152 18.612 0 10.692 8.136 18.612 19.152 18.612 11.052 0 19.188-7.92 19.188-18.612 0-10.692-8.136-18.612-19.188-18.612zm0 10.512c4.428 0 7.668 3.348 7.668 8.1s-3.24 8.1-7.668 8.1c-4.392 0-7.632-3.348-7.632-8.1s3.24-8.1 7.632-8.1zm42.431-10.512c-11.268 0-19.044 7.812-19.044 18.612 0 10.8 7.776 18.612 19.044 18.612 6.552 0 11.736-2.88 15.12-7.668l-8.784-6.264c-1.764 2.232-3.996 3.42-6.66 3.42-3.924 0-7.2-2.988-7.2-8.1 0-5.076 3.348-8.1 7.272-8.1 2.736 0 4.752 1.116 6.516 3.384l8.82-6.156c-3.384-4.824-8.532-7.74-15.084-7.74zm54.004.972h-11.232v19.188c0 4.5-2.448 6.552-5.796 6.552-3.384 0-5.796-2.052-5.796-6.552v-19.188h-11.268v20.16c0 11.088 7.632 16.092 17.064 16.092 9.396 0 17.028-5.004 17.028-16.056v-20.196zm37.063 2.088c-5.796-2.232-9.468-3.024-15.192-3.024-9.612 0-15.264 4.284-15.264 11.808 0 6.336 3.96 9.864 12.456 11.124l2.052.288c3.996.612 5.58 1.152 5.58 2.52 0 1.512-1.44 2.304-4.932 2.304-4.896 0-8.928-1.224-12.456-3.312l-3.924 8.712c4.032 2.628 10.26 3.708 16.308 3.708 10.296 0 16.344-4.644 16.344-12.384 0-5.94-3.996-9.576-11.556-10.728l-2.592-.396c-3.456-.54-5.688-.9-5.688-2.412 0-1.296 1.152-2.16 4.104-2.16 3.6.036 8.136 1.26 11.628 2.736l3.132-8.784zm40.385-3.06c-11.016 0-19.152 7.92-19.152 18.612 0 10.692 8.136 18.612 19.152 18.612 11.052 0 19.188-7.92 19.188-18.612 0-10.692-8.136-18.612-19.188-18.612zm0 10.512c4.428 0 7.668 3.348 7.668 8.1s-3.24 8.1-7.668 8.1c-4.392 0-7.632-3.348-7.632-8.1s3.24-8.1 7.632-8.1zm46.571-10.512c-4.716 0-8.28 1.692-10.512 5.4v-4.428h-10.8V414h11.268v-19.008c0-4.572 2.592-6.696 5.724-6.696 3.492 0 5.58 2.34 5.58 6.516V414h11.268v-23.184c0-8.172-5.472-13.104-12.528-13.104zm69.941.972h-11.268l-7.128 22.428-6.804-22.428h-11.988L799.565 414h12.492l6.804-21.132L825.737 414h12.564l12.168-35.316h-11.844l-6.876 22.536-7.2-22.536zm41.867-16.56h-11.268V414h11.268v-19.008c0-4.572 2.592-6.696 5.724-6.696 3.492 0 5.58 2.34 5.58 6.516V414h11.268v-23.184c0-8.172-5.472-13.104-12.528-13.104-4.392 0-7.812 1.476-10.044 4.68v-20.268zm65.82 16.56h-10.908v3.816c-2.124-2.772-5.364-4.788-10.116-4.788-9.468 0-16.452 8.208-16.452 18.576 0 10.44 6.984 18.648 16.416 18.648 4.788 0 8.028-1.98 10.152-4.752V414h10.908v-35.316zm-18.36 9.54c4.428 0 7.56 3.42 7.56 8.1s-3.132 8.1-7.56 8.1c-4.5 0-7.524-3.492-7.524-8.1s3.024-8.1 7.524-8.1zm53.353-9.54h-12.06v-10.296h-11.268v10.296h-6.588v9.972h6.588v11.772c0 8.856 4.284 14.508 13.752 14.508 5.688 0 9.216-1.62 12.528-3.924l-3.888-8.784c-1.764 1.044-4.032 2.196-6.12 2.196-2.844 0-5.004-1.368-5.004-5.436v-10.332h12.06v-9.972zm-488.997 90.028c-4.86 0-8.82 1.836-11.196 5.904-2.16-3.78-6.12-5.904-10.764-5.904-4.716 0-8.28 1.692-10.512 5.4v-4.428h-10.8V505h11.268v-19.008c0-4.572 2.592-6.696 5.724-6.696 3.492 0 5.58 2.34 5.58 6.516V505H468.8v-19.008c0-4.572 2.628-6.696 5.724-6.696 3.528 0 5.616 2.34 5.616 6.516V505h11.268v-23.184c0-8.136-5.112-13.104-13.176-13.104zm56.457.972h-10.908v3.816c-2.124-2.772-5.364-4.788-10.116-4.788-9.468 0-16.452 8.208-16.452 18.576 0 10.44 6.984 18.648 16.416 18.648 4.788 0 8.028-1.98 10.152-4.752V505h10.908v-35.316zm-18.36 9.54c4.428 0 7.56 3.42 7.56 8.1s-3.132 8.1-7.56 8.1c-4.5 0-7.524-3.492-7.524-8.1s3.024-8.1 7.524-8.1zm53.353-9.54h-12.06v-10.296h-11.268v10.296h-6.588v9.972h6.588v11.772c0 8.856 4.284 14.508 13.752 14.508 5.688 0 9.216-1.62 12.528-3.924l-3.888-8.784c-1.764 1.044-4.032 2.196-6.12 2.196-2.844 0-5.004-1.368-5.004-5.436v-10.332h12.06v-9.972zm33.539 0h-12.06v-10.296h-11.268v10.296h-6.588v9.972h6.588v11.772c0 8.856 4.284 14.508 13.752 14.508 5.688 0 9.216-1.62 12.528-3.924l-3.888-8.784c-1.764 1.044-4.032 2.196-6.12 2.196-2.844 0-5.004-1.368-5.004-5.436v-10.332h12.06v-9.972zm22.702-.972c-10.728 0-18.108 7.704-18.108 18.828 0 11.016 7.524 18.396 18.612 18.396 6.516 0 11.88-2.124 15.552-5.796l-7.272-6.768c-2.232 2.016-5.076 3.096-7.704 3.096-3.888 0-6.624-1.8-7.56-5.652h23.94c.144-.756.216-2.34.216-3.492-.036-11.052-7.2-18.612-17.676-18.612zm.036 9.576c3.276 0 5.472 1.872 6.372 5.4h-12.852c.864-3.492 2.988-5.4 6.48-5.4zm44.113-9.576c-4.32 0-7.596 1.62-9.648 5.04v-4.068h-10.8V505h11.268v-19.08c0-4.392 2.448-6.372 6.444-6.372 2.016 0 4.14.432 5.652.936l1.044-11.232c-.864-.252-2.304-.54-3.96-.54zm38.08 3.06c-5.796-2.232-9.468-3.024-15.192-3.024-9.612 0-15.264 4.284-15.264 11.808 0 6.336 3.96 9.864 12.456 11.124l2.052.288c3.996.612 5.58 1.152 5.58 2.52 0 1.512-1.44 2.304-4.932 2.304-4.896 0-8.928-1.224-12.456-3.312l-3.924 8.712c4.032 2.628 10.26 3.708 16.308 3.708 10.296 0 16.344-4.644 16.344-12.384 0-5.94-3.996-9.576-11.556-10.728l-2.592-.396c-3.456-.54-5.688-.9-5.688-2.412 0-1.296 1.152-2.16 4.104-2.16 3.6.036 8.136 1.26 11.628 2.736l3.132-8.784zm13.449 18.756c-4.14 0-7.74 3.528-7.74 7.632 0 4.176 3.6 7.776 7.74 7.776 4.104 0 7.668-3.6 7.668-7.776 0-4.104-3.564-7.632-7.668-7.632zm20.883 0c-4.14 0-7.74 3.528-7.74 7.632 0 4.176 3.6 7.776 7.74 7.776 4.104 0 7.668-3.6 7.668-7.776 0-4.104-3.564-7.632-7.668-7.632zm20.883 0c-4.14 0-7.74 3.528-7.74 7.632 0 4.176 3.6 7.776 7.74 7.776 4.104 0 7.668-3.6 7.668-7.776 0-4.104-3.564-7.632-7.668-7.632zM816.44 597.504h-36v3.552h36v-3.552zm38.573-8.304h-4.32l-7.8 14.016-8.208-14.016h-4.392l10.392 17.928-8.424 14.592h4.344l18.408-32.52zm14.397-.48c-6.912 0-12.048 5.112-12.048 11.88 0 6.768 5.136 11.88 12.048 11.88s12.072-5.112 12.072-11.88c0-6.768-5.16-11.88-12.072-11.88zm0 3.696c4.56 0 8.04 3.408 8.04 8.184s-3.48 8.208-8.04 8.208c-4.584 0-8.04-3.432-8.04-8.208s3.456-8.184 8.04-8.184zm39.216-3.216h-3.936v12.888c0 4.656-2.76 6.72-6.456 6.72-3.72 0-6.48-2.064-6.48-6.72V589.2h-3.936v13.248c0 6.888 4.92 10.032 10.416 10.032 5.448 0 10.392-3.144 10.392-10.032V589.2zm18.609-.48c-2.712 0-5.088 1.248-6.672 3.48v-3h-3.864V612h3.912v-12.696c0-4.2 2.448-6.864 5.928-6.864 1.296 0 2.832.312 3.912.888l.96-3.864c-1.224-.528-2.544-.744-4.176-.744zm32.005 0c-7.056 0-11.832 5.112-11.832 11.88 0 6.768 4.776 11.88 11.832 11.88 3.384 0 6.408-1.248 8.472-3.576l-2.424-2.712c-1.584 1.536-3.72 2.616-6.144 2.616-4.392 0-7.728-3.432-7.728-8.208s3.336-8.184 7.728-8.184c2.424 0 4.368.936 6.048 2.568l2.52-2.664c-2.04-2.352-5.088-3.6-8.472-3.6zm24.404 0c-6.912 0-12.048 5.112-12.048 11.88 0 6.768 5.136 11.88 12.048 11.88s12.072-5.112 12.072-11.88c0-6.768-5.16-11.88-12.072-11.88zm0 3.696c4.56 0 8.04 3.408 8.04 8.184s-3.48 8.208-8.04 8.208c-4.584 0-8.04-3.432-8.04-8.208s3.456-8.184 8.04-8.184zm29.996-3.696c-2.64 0-5.59.888-7.46 3.456V589.2h-3.89V612h3.91v-12.792c0-4.248 3.08-6.768 6.75-6.768 3.96 0 6.26 2.472 6.26 6.672V612h3.94v-14.16c0-5.472-3.89-9.12-9.51-9.12zm32.73.48h-9.58v-7.152h-3.94v7.152h-4.87v3.576h4.87v11.184c0 5.808 2.96 8.52 7.9 8.52 2.81 0 5.09-.984 6.84-2.256l-1.85-2.952c-1.29.888-2.97 1.536-4.65 1.536-2.48 0-4.3-1.488-4.3-4.92v-11.112h9.58V589.2zm15.82-.48c-6.55 0-11.33 4.872-11.33 11.88 0 7.104 4.8 11.88 11.57 11.88 3.36 0 6.53-.816 9.36-3.456l-2.09-2.688c-1.94 1.68-4.37 2.712-7.03 2.712-3.91 0-7.2-2.328-7.75-7.056h17.93c.02-.432.07-.96.07-1.464-.05-6.984-4.51-11.808-10.73-11.808zm-.07 3.48c3.69 0 6.31 2.592 6.79 6.624h-13.94c.6-3.888 3.12-6.624 7.15-6.624zm28.73-3.48c-2.64 0-5.59.888-7.47 3.456V589.2h-3.88V612h3.91v-12.792c0-4.248 3.07-6.768 6.74-6.768 3.96 0 6.27 2.472 6.27 6.672V612h3.93v-14.16c0-5.472-3.89-9.12-9.5-9.12zm32.72.48h-9.58v-7.152h-3.93v7.152h-4.87v3.576h4.87v11.184c0 5.808 2.95 8.52 7.89 8.52 2.81 0 5.09-.984 6.84-2.256l-1.84-2.952c-1.3.888-2.98 1.536-4.66 1.536-2.47 0-4.3-1.488-4.3-4.92v-11.112h9.58V589.2z" fill="#fff"/></svg>