<svg width="1600" height="900" fill="none" xmlns="http://www.w3.org/2000/svg"><path fill="#AA35D2" d="M0 0h1600v900H0z"/><path d="M361.048 295.56l2.844-23.4h-9.396l-5.76 23.4h12.312zm17.208 0l2.844-23.4h-9.396l-5.76 23.4h12.312zm21.901-7.848c-10.728 0-18.108 7.704-18.108 18.828 0 11.016 7.524 18.396 18.612 18.396 6.516 0 11.88-2.124 15.552-5.796l-7.272-6.768c-2.232 2.016-5.076 3.096-7.704 3.096-3.888 0-6.624-1.8-7.56-5.652h23.94c.144-.756.216-2.34.216-3.492-.036-11.052-7.2-18.612-17.676-18.612zm.036 9.576c3.276 0 5.472 1.872 6.372 5.4h-12.852c.864-3.492 2.988-5.4 6.48-5.4zm58.588-8.604h-11.916l-7.956 23.04-7.884-23.04h-12.276L432.429 324h12.852l13.5-35.316zm19.071-.972c-10.728 0-18.108 7.704-18.108 18.828 0 11.016 7.524 18.396 18.612 18.396 6.516 0 11.88-2.124 15.552-5.796l-7.272-6.768c-2.232 2.016-5.076 3.096-7.704 3.096-3.888 0-6.624-1.8-7.56-5.652h23.94c.144-.756.216-2.34.216-3.492-.036-11.052-7.2-18.612-17.676-18.612zm.036 9.576c3.276 0 5.472 1.872 6.372 5.4h-12.852c.864-3.492 2.988-5.4 6.48-5.4zm44.114-9.576c-4.32 0-7.596 1.62-9.648 5.04v-4.068h-10.8V324h11.268v-19.08c0-4.392 2.448-6.372 6.444-6.372 2.016 0 4.14.432 5.652.936l1.044-11.232c-.864-.252-2.304-.54-3.96-.54zm47.861.972h-12.312l-7.884 15.876-8.028-15.876h-12.924l14.868 27.54-12.096 22.248h12.312l26.064-49.788zm19.213-.972c-11.016 0-19.152 7.92-19.152 18.612 0 10.692 8.136 18.612 19.152 18.612 11.052 0 19.188-7.92 19.188-18.612 0-10.692-8.136-18.612-19.188-18.612zm0 10.512c4.428 0 7.668 3.348 7.668 8.1s-3.24 8.1-7.668 8.1c-4.392 0-7.632-3.348-7.632-8.1s3.24-8.1 7.632-8.1zm46.571-10.512c-4.716 0-8.28 1.692-10.512 5.4v-4.428h-10.8V324h11.268v-19.008c0-4.572 2.592-6.696 5.724-6.696 3.492 0 5.58 2.34 5.58 6.516V324h11.268v-23.184c0-8.172-5.472-13.104-12.528-13.104zm36.408 0c-10.728 0-18.108 7.704-18.108 18.828 0 11.016 7.524 18.396 18.612 18.396 6.516 0 11.88-2.124 15.552-5.796l-7.272-6.768c-2.232 2.016-5.076 3.096-7.704 3.096-3.888 0-6.624-1.8-7.56-5.652h23.94c.144-.756.216-2.34.216-3.492-.036-11.052-7.2-18.612-17.676-18.612zm.036 9.576c3.276 0 5.472 1.872 6.372 5.4h-12.852c.864-3.492 2.988-5.4 6.48-5.4zm57.01-9.576c-11.268 0-19.044 7.812-19.044 18.612 0 10.8 7.776 18.612 19.044 18.612 6.552 0 11.736-2.88 15.12-7.668l-8.784-6.264c-1.764 2.232-3.996 3.42-6.66 3.42-3.924 0-7.2-2.988-7.2-8.1 0-5.076 3.348-8.1 7.272-8.1 2.736 0 4.752 1.116 6.516 3.384l8.82-6.156c-3.384-4.824-8.532-7.74-15.084-7.74zm31.432-15.588h-11.268V324h11.268v-19.008c0-4.572 2.592-6.696 5.724-6.696 3.492 0 5.58 2.34 5.58 6.516V324h11.268v-23.184c0-8.172-5.472-13.104-12.528-13.104-4.392 0-7.812 1.476-10.044 4.68v-20.268zm41.484 16.56h-11.268V324h11.268v-35.316zm-5.688-17.64c-3.816 0-6.732 2.952-6.732 6.768 0 3.78 2.916 6.696 6.732 6.696 3.78 0 6.732-2.916 6.732-6.696 0-3.816-2.952-6.768-6.732-6.768zm56.817 16.668c-4.86 0-8.82 1.836-11.196 5.904-2.16-3.78-6.12-5.904-10.764-5.904-4.716 0-8.28 1.692-10.512 5.4v-4.428h-10.8V324h11.268v-19.008c0-4.572 2.592-6.696 5.724-6.696 3.492 0 5.58 2.34 5.58 6.516V324h11.268v-19.008c0-4.572 2.628-6.696 5.724-6.696 3.528 0 5.616 2.34 5.616 6.516V324h11.268v-23.184c0-8.136-5.112-13.104-13.176-13.104zm37.089 0c-10.728 0-18.108 7.704-18.108 18.828 0 11.016 7.524 18.396 18.612 18.396 6.516 0 11.88-2.124 15.552-5.796l-7.272-6.768c-2.232 2.016-5.076 3.096-7.704 3.096-3.888 0-6.624-1.8-7.56-5.652h23.94c.144-.756.216-2.34.216-3.492-.036-11.052-7.2-18.612-17.676-18.612zm.036 9.576c3.276 0 5.472 1.872 6.372 5.4h-12.852c.864-3.492 2.988-5.4 6.48-5.4zm38.246-9.576c-9.468 0-16.452 8.208-16.452 18.576 0 10.44 6.984 18.648 16.416 18.648 4.788 0 8.028-1.98 10.152-4.752V324h10.872v-51.84h-11.232v19.908c-2.124-2.556-5.256-4.356-9.756-4.356zm2.664 10.512c4.428 0 7.56 3.42 7.56 8.1s-3.132 8.1-7.56 8.1c-4.5 0-7.524-3.492-7.524-8.1s3.024-8.1 7.524-8.1zm53.649-9.54h-11.268V324h11.268v-35.316zm-5.688-17.64c-3.816 0-6.732 2.952-6.732 6.768 0 3.78 2.916 6.696 6.732 6.696 3.78 0 6.732-2.916 6.732-6.696 0-3.816-2.952-6.768-6.732-6.768zM1014 287.712c-4.72 0-8.28 1.692-10.51 5.4v-4.428h-10.803V324h11.263v-19.008c0-4.572 2.6-6.696 5.73-6.696 3.49 0 5.58 2.34 5.58 6.516V324h11.27v-23.184c0-8.172-5.48-13.104-12.53-13.104zm-636.896 91.972h-12.06v-10.296h-11.268v10.296h-6.588v9.972h6.588v11.772c0 8.856 4.284 14.508 13.752 14.508 5.688 0 9.216-1.62 12.528-3.924l-3.888-8.784c-1.764 1.044-4.032 2.196-6.12 2.196-2.844 0-5.004-1.368-5.004-5.436v-10.332h12.06v-9.972zm23.745-.972c-11.016 0-19.152 7.92-19.152 18.612 0 10.692 8.136 18.612 19.152 18.612 11.052 0 19.188-7.92 19.188-18.612 0-10.692-8.136-18.612-19.188-18.612zm0 10.512c4.428 0 7.668 3.348 7.668 8.1s-3.24 8.1-7.668 8.1c-4.392 0-7.632-3.348-7.632-8.1s3.24-8.1 7.632-8.1zm71.131-7.452c-5.796-2.232-9.468-3.024-15.192-3.024-9.612 0-15.264 4.284-15.264 11.808 0 6.336 3.96 9.864 12.456 11.124l2.052.288c3.996.612 5.58 1.152 5.58 2.52 0 1.512-1.44 2.304-4.932 2.304-4.896 0-8.928-1.224-12.456-3.312l-3.924 8.712c4.032 2.628 10.26 3.708 16.308 3.708 10.296 0 16.344-4.644 16.344-12.384 0-5.94-3.996-9.576-11.556-10.728l-2.592-.396c-3.456-.54-5.688-.9-5.688-2.412 0-1.296 1.152-2.16 4.104-2.16 3.6.036 8.136 1.26 11.628 2.736l3.132-8.784zm42.256-2.088h-10.908v3.816c-2.124-2.772-5.364-4.788-10.116-4.788-9.468 0-16.452 8.208-16.452 18.576 0 10.44 6.984 18.648 16.416 18.648 4.788 0 8.028-1.98 10.152-4.752V415h10.908v-35.316zm-18.36 9.54c4.428 0 7.56 3.42 7.56 8.1s-3.132 8.1-7.56 8.1c-4.5 0-7.524-3.492-7.524-8.1s3.024-8.1 7.524-8.1zm63.721-9.54h-12.312l-7.884 15.876-8.028-15.876h-12.924l14.868 27.54-12.096 22.248h12.312l26.064-49.788zm30.248 6.876l2.844-23.4h-9.396l-5.76 23.4h12.312zm36.753-4.788c-5.796-2.232-9.468-3.024-15.192-3.024-9.612 0-15.264 4.284-15.264 11.808 0 6.336 3.96 9.864 12.456 11.124l2.052.288c3.996.612 5.58 1.152 5.58 2.52 0 1.512-1.44 2.304-4.932 2.304-4.896 0-8.928-1.224-12.456-3.312l-3.924 8.712c4.032 2.628 10.26 3.708 16.308 3.708 10.296 0 16.344-4.644 16.344-12.384 0-5.94-3.996-9.576-11.556-10.728l-2.592-.396c-3.456-.54-5.688-.9-5.688-2.412 0-1.296 1.152-2.16 4.104-2.16 3.6.036 8.136 1.26 11.628 2.736l3.132-8.784zm42.255-2.088h-10.908v3.816c-2.124-2.772-5.364-4.788-10.116-4.788-9.468 0-16.452 8.208-16.452 18.576 0 10.44 6.984 18.648 16.416 18.648 4.788 0 8.028-1.98 10.152-4.752V415h10.908v-35.316zm-18.36 9.54c4.428 0 7.56 3.42 7.56 8.1s-3.132 8.1-7.56 8.1c-4.5 0-7.524-3.492-7.524-8.1s3.024-8.1 7.524-8.1zm37.477-9.54h-11.268V415h11.268v-35.316zm-5.688-17.64c-3.816 0-6.732 2.952-6.732 6.768 0 3.78 2.916 6.696 6.732 6.696 3.78 0 6.732-2.916 6.732-6.696 0-3.816-2.952-6.768-6.732-6.768zm28.125 16.668c-9.468 0-16.452 8.208-16.452 18.576 0 10.44 6.984 18.648 16.416 18.648 4.788 0 8.028-1.98 10.152-4.752V415h10.872v-51.84h-11.232v19.908c-2.124-2.556-5.256-4.356-9.756-4.356zm2.664 10.512c4.428 0 7.56 3.42 7.56 8.1s-3.132 8.1-7.56 8.1c-4.5 0-7.524-3.492-7.524-8.1s3.024-8.1 7.524-8.1zm99.981-24.624h-17.064l-11.412 32.004-11.484-32.004h-17.028V415h12.024v-34.38l10.08 29.628h12.78l10.08-29.736V415h12.024v-50.4zm44.168 15.084h-10.908v3.816c-2.124-2.772-5.364-4.788-10.116-4.788-9.468 0-16.452 8.208-16.452 18.576 0 10.44 6.984 18.648 16.416 18.648 4.788 0 8.028-1.98 10.152-4.752V415h10.908v-35.316zm-18.36 9.54c4.428 0 7.56 3.42 7.56 8.1s-3.132 8.1-7.56 8.1c-4.5 0-7.524-3.492-7.524-8.1s3.024-8.1 7.524-8.1zm63.721-9.54h-12.312l-7.884 15.876-8.028-15.876h-12.924l14.868 27.54-12.096 22.248h12.312l26.064-49.788zM382.72 506h15.12l-21.168-25.812L396.22 455.6h-14.796l-14.472 19.62h-4.356V455.6h-12.024V506h12.024v-19.944h4.248L382.72 506zm51.219-35.316h-10.908v3.816c-2.124-2.772-5.364-4.788-10.116-4.788-9.468 0-16.452 8.208-16.452 18.576 0 10.44 6.984 18.648 16.416 18.648 4.788 0 8.028-1.98 10.152-4.752V506h10.908v-35.316zm-18.36 9.54c4.428 0 7.56 3.42 7.56 8.1s-3.132 8.1-7.56 8.1c-4.5 0-7.524-3.492-7.524-8.1s3.024-8.1 7.524-8.1zm55.909-7.452c-5.796-2.232-9.468-3.024-15.192-3.024-9.612 0-15.264 4.284-15.264 11.808 0 6.336 3.96 9.864 12.456 11.124l2.052.288c3.996.612 5.58 1.152 5.58 2.52 0 1.512-1.44 2.304-4.932 2.304-4.896 0-8.928-1.224-12.456-3.312l-3.924 8.712c4.032 2.628 10.26 3.708 16.308 3.708 10.296 0 16.344-4.644 16.344-12.384 0-5.94-3.996-9.576-11.556-10.728l-2.592-.396c-3.456-.54-5.688-.9-5.688-2.412 0-1.296 1.152-2.16 4.104-2.16 3.6.036 8.136 1.26 11.628 2.736l3.132-8.784zm42.256-2.088h-10.908v3.816c-2.124-2.772-5.364-4.788-10.116-4.788-9.468 0-16.452 8.208-16.452 18.576 0 10.44 6.984 18.648 16.416 18.648 4.788 0 8.028-1.98 10.152-4.752V506h10.908v-35.316zm-18.36 9.54c4.428 0 7.56 3.42 7.56 8.1s-3.132 8.1-7.56 8.1c-4.5 0-7.524-3.492-7.524-8.1s3.024-8.1 7.524-8.1zm37.477-26.1h-11.268V506h11.268v-19.008c0-4.572 2.592-6.696 5.724-6.696 3.492 0 5.58 2.34 5.58 6.516V506h11.268v-23.184c0-8.172-5.472-13.104-12.528-13.104-4.392 0-7.812 1.476-10.044 4.68v-20.268zm65.82 16.56h-10.908v3.816c-2.124-2.772-5.364-4.788-10.116-4.788-9.468 0-16.452 8.208-16.452 18.576 0 10.44 6.984 18.648 16.416 18.648 4.788 0 8.028-1.98 10.152-4.752V506h10.908v-35.316zm-18.36 9.54c4.428 0 7.56 3.42 7.56 8.1s-3.132 8.1-7.56 8.1c-4.5 0-7.524-3.492-7.524-8.1s3.024-8.1 7.524-8.1zm46.657-10.512c-4.32 0-7.596 1.62-9.648 5.04v-4.068h-10.8V506h11.268v-19.08c0-4.392 2.448-6.372 6.444-6.372 2.016 0 4.14.432 5.652.936l1.044-11.232c-.864-.252-2.304-.54-3.96-.54zm43.774.972h-10.908v3.816c-2.124-2.772-5.364-4.788-10.116-4.788-9.468 0-16.452 8.208-16.452 18.576 0 10.44 6.984 18.648 16.415 18.648 4.789 0 8.029-1.98 10.153-4.752V506h10.908v-35.316zm-18.36 9.54c4.428 0 7.56 3.42 7.56 8.1s-3.132 8.1-7.56 8.1c-4.5 0-7.524-3.492-7.524-8.1s3.024-8.1 7.524-8.1zm27.541-26.064l-2.844 23.4h9.396l5.76-23.4h-12.312zm37.528 0l-2.844 23.4h9.396l5.76-23.4h-12.312zm-17.208 0l-2.844 23.4h9.396l5.76-23.4h-12.312z" fill="#fff"/></svg>