<svg width="1600" height="900" fill="none" xmlns="http://www.w3.org/2000/svg"><path fill="#CC5A36" d="M0 0h1600v900H0z"/><path d="M957.464 504.672H939.48v4.736h17.984v-4.736zm44.986 1.408c10.12 0 15.84-5.056 15.84-13.44s-5.72-13.44-15.84-13.44h-17.019V524h5.632v-17.92h11.387zm-.12-21.568c6.62 0 10.11 2.688 10.11 8.128 0 5.44-3.49 8.128-10.11 8.128h-11.267v-16.256h11.267zm29.92-6.592h-5.21V524h5.21v-46.08zm39.96 15.68h-5.25v4.096c-2.4-2.88-5.95-4.736-10.72-4.736-8.54 0-15.2 6.656-15.2 15.84 0 9.184 6.66 15.84 15.2 15.84 4.77 0 8.32-1.856 10.72-4.704V524h5.25v-30.4zm-15.36 4.288c6.15 0 10.43 4.704 10.43 10.912 0 6.24-4.28 10.944-10.43 10.944-6.24 0-10.46-4.896-10.46-10.944 0-6.048 4.13-10.912 10.46-10.912zm47.08-4.288h-12.77v-9.536h-5.25v9.536h-6.5v4.768h6.5v14.912c0 7.744 3.94 11.36 10.53 11.36 3.74 0 6.78-1.312 9.12-3.008l-2.47-3.936c-1.72 1.184-3.96 2.048-6.2 2.048-3.3 0-5.73-1.984-5.73-6.56v-14.816h12.77V493.6zm22.05-.64c-9.21 0-16.06 6.816-16.06 15.84 0 9.024 6.85 15.84 16.06 15.84 9.22 0 16.1-6.816 16.1-15.84 0-9.024-6.88-15.84-16.1-15.84zm0 4.928c6.08 0 10.72 4.544 10.72 10.912 0 6.368-4.64 10.944-10.72 10.944-6.11 0-10.72-4.576-10.72-10.944 0-6.368 4.61-10.912 10.72-10.912z" fill="#E5E5E5"/><path d="M294.94 421.84h-25.344V382.6h-12.024V433h37.368v-11.16zm16.108-24.156H299.78V433h11.268v-35.316zm-5.688-17.64c-3.816 0-6.732 2.952-6.732 6.768 0 3.78 2.916 6.696 6.732 6.696 3.78 0 6.732-2.916 6.732-6.696 0-3.816-2.952-6.768-6.732-6.768zm38.025 17.64h-9.9V395.2c0-3.06 1.224-4.464 3.708-4.464 2.16 0 3.816.684 5.508 1.548l4.896-8.316c-2.772-2.088-6.408-3.744-11.916-3.744-8.244 0-13.464 5.22-13.464 14.724v2.736h-6.084v9.972h6.084V433h11.268v-25.344h9.9v-9.972zm20.936-.972c-10.728 0-18.108 7.704-18.108 18.828 0 11.016 7.524 18.396 18.612 18.396 6.516 0 11.88-2.124 15.552-5.796l-7.272-6.768c-2.232 2.016-5.076 3.096-7.704 3.096-3.888 0-6.624-1.8-7.56-5.652h23.94c.144-.756.216-2.34.216-3.492-.036-11.052-7.2-18.612-17.676-18.612zm.036 9.576c3.276 0 5.472 1.872 6.372 5.4h-12.852c.864-3.492 2.988-5.4 6.48-5.4zm83.109-9.576c-4.86 0-8.82 1.836-11.196 5.904-2.16-3.78-6.12-5.904-10.764-5.904-4.716 0-8.28 1.692-10.512 5.4v-4.428h-10.8V433h11.268v-19.008c0-4.572 2.592-6.696 5.724-6.696 3.492 0 5.58 2.34 5.58 6.516V433h11.268v-19.008c0-4.572 2.628-6.696 5.724-6.696 3.528 0 5.616 2.34 5.616 6.516V433h11.268v-23.184c0-8.136-5.112-13.104-13.176-13.104zm54.693.972h-11.232v19.188c0 4.5-2.448 6.552-5.796 6.552-3.384 0-5.796-2.052-5.796-6.552v-19.188h-11.268v20.16c0 11.088 7.632 16.092 17.064 16.092 9.396 0 17.028-5.004 17.028-16.056v-20.196zm37.064 2.088c-5.796-2.232-9.468-3.024-15.192-3.024-9.612 0-15.264 4.284-15.264 11.808 0 6.336 3.96 9.864 12.456 11.124l2.052.288c3.996.612 5.58 1.152 5.58 2.52 0 1.512-1.44 2.304-4.932 2.304-4.896 0-8.928-1.224-12.456-3.312l-3.924 8.712c4.032 2.628 10.26 3.708 16.308 3.708 10.296 0 16.344-4.644 16.344-12.384 0-5.94-3.996-9.576-11.556-10.728l-2.592-.396c-3.456-.54-5.688-.9-5.688-2.412 0-1.296 1.152-2.16 4.104-2.16 3.599.036 8.136 1.26 11.628 2.736l3.132-8.784zm33.584-2.088h-12.06v-10.296h-11.268v10.296h-6.588v9.972h6.588v11.772c0 8.856 4.284 14.508 13.752 14.508 5.688 0 9.216-1.62 12.528-3.924l-3.888-8.784c-1.764 1.044-4.032 2.196-6.12 2.196-2.844 0-5.004-1.368-5.004-5.436v-10.332h12.06v-9.972zm44.539-.972c-4.536 0-7.632 1.8-9.756 4.356V381.16h-11.232V433h10.872v-3.78c2.124 2.772 5.328 4.716 10.116 4.716 9.432 0 16.452-8.208 16.452-18.648 0-10.368-7.02-18.576-16.452-18.576zm-2.7 10.512c4.536 0 7.56 3.492 7.56 8.1s-3.024 8.1-7.56 8.1c-4.428 0-7.524-3.42-7.524-8.1s3.096-8.1 7.524-8.1zm41.402-10.512c-10.728 0-18.108 7.704-18.108 18.828 0 11.016 7.524 18.396 18.612 18.396 6.516 0 11.88-2.124 15.552-5.796l-7.272-6.768c-2.232 2.016-5.076 3.096-7.704 3.096-3.888 0-6.624-1.8-7.56-5.652h23.94c.144-.756.216-2.34.216-3.492-.036-11.052-7.2-18.612-17.676-18.612zm.036 9.576c3.276 0 5.472 1.872 6.372 5.4h-12.852c.864-3.492 2.988-5.4 6.48-5.4zm51.105-25.128h-11.268V433h11.268v-51.84zm19.125 16.524h-11.268V433h11.268v-35.316zm-5.688-17.64c-3.816 0-6.732 2.952-6.732 6.768 0 3.78 2.916 6.696 6.732 6.696 3.78 0 6.732-2.916 6.732-6.696 0-3.816-2.952-6.768-6.732-6.768zm50.085 17.64h-11.916l-7.956 23.04-7.884-23.04h-12.276L744.359 433h12.852l13.5-35.316zm19.071-.972c-10.728 0-18.108 7.704-18.108 18.828 0 11.016 7.524 18.396 18.612 18.396 6.516 0 11.88-2.124 15.552-5.796l-7.272-6.768c-2.232 2.016-5.076 3.096-7.704 3.096-3.888 0-6.624-1.8-7.56-5.652h23.94c.144-.756.216-2.34.216-3.492-.036-11.052-7.2-18.612-17.676-18.612zm.036 9.576c3.276 0 5.472 1.872 6.372 5.4h-12.852c.864-3.492 2.988-5.4 6.48-5.4zm38.245-9.576c-9.468 0-16.452 8.208-16.452 18.576 0 10.44 6.984 18.648 16.416 18.648 4.788 0 8.028-1.98 10.152-4.752V433h10.872v-51.84h-11.232v19.908c-2.124-2.556-5.256-4.356-9.756-4.356zm2.664 10.512c4.428 0 7.56 3.42 7.56 8.1s-3.132 8.1-7.56 8.1c-4.5 0-7.524-3.492-7.524-8.1s3.024-8.1 7.524-8.1zm77.985-9.54h-10.908v3.816c-2.124-2.772-5.364-4.788-10.116-4.788-9.468 0-16.452 8.208-16.452 18.576 0 10.44 6.984 18.648 16.416 18.648 4.788 0 8.028-1.98 10.152-4.752V433h10.908v-35.316zm-18.36 9.54c4.428 0 7.56 3.42 7.56 8.1s-3.132 8.1-7.56 8.1c-4.5 0-7.524-3.492-7.524-8.1s3.024-8.1 7.524-8.1zm55.91-7.452c-5.796-2.232-9.468-3.024-15.192-3.024-9.612 0-15.264 4.284-15.264 11.808 0 6.336 3.96 9.864 12.456 11.124l2.052.288c3.996.612 5.58 1.152 5.58 2.52 0 1.512-1.44 2.304-4.932 2.304-4.896 0-8.928-1.224-12.456-3.312l-3.924 8.712c4.032 2.628 10.26 3.708 16.308 3.708 10.296 0 16.344-4.644 16.344-12.384 0-5.94-3.996-9.576-11.556-10.728l-2.592-.396c-3.456-.54-5.688-.9-5.688-2.412 0-1.296 1.152-2.16 4.104-2.16 3.6.036 8.136 1.26 11.628 2.736l3.132-8.784zm45.424 16.2c12.344 0 18.934-6.624 18.934-16.56 0-10.116-6.59-16.812-19.042-16.812h-21.6V433h12.024v-17.028h9.684zm-.288-22.464c4.32 0 6.984 2.052 6.984 5.904 0 3.816-2.664 5.832-6.984 5.832h-9.396v-11.736h9.396zm36.622-12.348h-11.26V433h11.26v-51.84zm43.47 16.524h-10.91v3.816c-2.13-2.772-5.37-4.788-10.12-4.788-9.47 0-16.45 8.208-16.45 18.576 0 10.44 6.98 18.648 16.42 18.648 4.78 0 8.02-1.98 10.15-4.752V433h10.91v-35.316zm-18.36 9.54c4.42 0 7.56 3.42 7.56 8.1s-3.14 8.1-7.56 8.1c-4.5 0-7.53-3.492-7.53-8.1s3.03-8.1 7.53-8.1zm63.72-9.54h-12.31l-7.89 15.876-8.03-15.876h-12.92l14.87 27.54-12.1 22.248h12.31l26.07-49.788zm4.16 20.844c-4.14 0-7.74 3.528-7.74 7.632 0 4.176 3.6 7.776 7.74 7.776 4.1 0 7.67-3.6 7.67-7.776 0-4.104-3.57-7.632-7.67-7.632z" fill="#fff"/></svg>