<svg width="1600" height="900" fill="none" xmlns="http://www.w3.org/2000/svg"><path fill="#70218B" d="M0 0h1600v900H0z"/><path d="M458.596 399.6h-12.024V450h12.024v-50.4zm25.78 4.14l-2.736 8.352 8.136 2.34-5.22 6.66 7.164 5.148 4.68-7.02 4.752 7.02 7.128-5.148-5.256-6.66 8.172-2.34-2.736-8.352-7.956 2.916.324-8.496h-8.82l.288 8.496-7.92-2.916zm44.36-5.58h-11.268V450h11.268v-51.84zm25.137 15.552c-11.016 0-19.152 7.92-19.152 18.612 0 10.692 8.136 18.612 19.152 18.612 11.052 0 19.188-7.92 19.188-18.612 0-10.692-8.136-18.612-19.188-18.612zm0 10.512c4.428 0 7.668 3.348 7.668 8.1s-3.24 8.1-7.668 8.1c-4.392 0-7.632-3.348-7.632-8.1s3.24-8.1 7.632-8.1zm60.182-9.54h-11.916l-7.956 23.04-7.884-23.04h-12.276L587.703 450h12.852l13.5-35.316zm19.071-.972c-10.728 0-18.108 7.704-18.108 18.828 0 11.016 7.524 18.396 18.612 18.396 6.516 0 11.88-2.124 15.552-5.796l-7.272-6.768c-2.232 2.016-5.076 3.096-7.704 3.096-3.888 0-6.624-1.8-7.56-5.652h23.94c.144-.756.216-2.34.216-3.492-.036-11.052-7.2-18.612-17.676-18.612zm.036 9.576c3.276 0 5.472 1.872 6.372 5.4h-12.852c.864-3.492 2.988-5.4 6.48-5.4zm22.917-19.548l-2.736 8.352 8.136 2.34-5.22 6.66 7.164 5.148 4.68-7.02 4.752 7.02 7.128-5.148-5.256-6.66 8.172-2.34-2.736-8.352-7.956 2.916.324-8.496h-8.82l.288 8.496-7.92-2.916zm106.864-4.14h-17.064l-11.412 32.004-11.484-32.004h-17.028V450h12.024v-34.38l10.08 29.628h12.78l10.08-29.736V450h12.024v-50.4zm44.168 15.084h-10.908v3.816c-2.124-2.772-5.364-4.788-10.116-4.788-9.468 0-16.452 8.208-16.452 18.576 0 10.44 6.984 18.648 16.416 18.648 4.788 0 8.028-1.98 10.152-4.752V450h10.908v-35.316zm-18.36 9.54c4.428 0 7.56 3.42 7.56 8.1s-3.132 8.1-7.56 8.1c-4.5 0-7.524-3.492-7.524-8.1s3.024-8.1 7.524-8.1zm46.657-10.512c-4.32 0-7.596 1.62-9.648 5.04v-4.068h-10.8V450h11.268v-19.08c0-4.392 2.448-6.372 6.444-6.372 2.016 0 4.14.432 5.652.936l1.044-11.232c-.864-.252-2.304-.54-3.96-.54zm20.351-15.552h-11.268V450h11.268v-13.644h2.412L866.883 450h13.608l-13.104-18.648 13.068-16.668h-13.644l-8.352 11.7h-2.7V398.16zm41 15.552c-9.468 0-16.452 8.208-16.452 18.576 0 10.44 6.984 18.648 16.416 18.648 4.788 0 8.028-1.98 10.152-4.752V450h10.872v-51.84h-11.232v19.908c-2.124-2.556-5.256-4.356-9.756-4.356zm2.664 10.512c4.428 0 7.56 3.42 7.56 8.1s-3.132 8.1-7.56 8.1c-4.5 0-7.524-3.492-7.524-8.1s3.024-8.1 7.524-8.1zm43.489-10.512c-11.016 0-19.152 7.92-19.152 18.612 0 10.692 8.136 18.612 19.152 18.612 11.052 0 19.188-7.92 19.188-18.612 0-10.692-8.136-18.612-19.188-18.612zm0 10.512c4.428 0 7.668 3.348 7.668 8.1s-3.24 8.1-7.668 8.1c-4.392 0-7.632-3.348-7.632-8.1s3.24-8.1 7.632-8.1zm57.658-9.54h-11.266l-7.128 22.428-6.804-22.428h-11.988L975.588 450h12.492l6.804-21.132L1001.76 450h12.56l12.17-35.316h-11.84l-6.88 22.536-7.2-22.536zm51.91-.972c-4.71 0-8.28 1.692-10.51 5.4v-4.428h-10.8V450h11.27v-19.008c0-4.572 2.59-6.696 5.72-6.696 3.49 0 5.58 2.34 5.58 6.516V450h11.27v-23.184c0-8.172-5.47-13.104-12.53-13.104zM814.8 550.2h-3.936v3.072c-1.8-2.16-4.464-3.552-8.04-3.552-6.408 0-11.4 4.992-11.4 11.88 0 6.888 4.992 11.88 11.4 11.88 3.576 0 6.24-1.392 8.04-3.528V573h3.936v-22.8zm-11.52 3.216c4.608 0 7.824 3.528 7.824 8.184 0 4.68-3.216 8.208-7.824 8.208-4.68 0-7.848-3.672-7.848-8.208s3.096-8.184 7.848-8.184zm31.177-3.696c-2.64 0-5.592.888-7.464 3.456V550.2h-3.888V573h3.912v-12.792c0-4.248 3.072-6.768 6.744-6.768 3.96 0 6.264 2.472 6.264 6.672V573h3.936v-14.16c0-5.472-3.888-9.12-9.504-9.12zm27.242 0c-6.408 0-11.4 4.992-11.4 11.88 0 6.888 4.992 11.88 11.4 11.88 3.576 0 6.24-1.392 8.04-3.528V573h3.936v-34.56h-3.936v14.832c-1.8-2.16-4.464-3.552-8.04-3.552zm.456 3.696c4.608 0 7.824 3.528 7.824 8.184 0 4.68-3.216 8.208-7.824 8.208-4.68 0-7.848-3.672-7.848-8.208s3.096-8.184 7.848-8.184zm52.826-3.216h-4.32l-7.8 14.016-8.208-14.016h-4.392l10.392 17.928-8.424 14.592h4.344l18.408-32.52zm14.397-.48c-6.912 0-12.048 5.112-12.048 11.88 0 6.768 5.136 11.88 12.048 11.88s12.072-5.112 12.072-11.88c0-6.768-5.16-11.88-12.072-11.88zm0 3.696c4.56 0 8.04 3.408 8.04 8.184s-3.48 8.208-8.04 8.208c-4.584 0-8.04-3.432-8.04-8.208s3.456-8.184 8.04-8.184zm39.217-3.216h-3.936v12.888c0 4.656-2.76 6.72-6.456 6.72-3.72 0-6.48-2.064-6.48-6.72V550.2h-3.936v13.248c0 6.888 4.92 10.032 10.416 10.032 5.448 0 10.392-3.144 10.392-10.032V550.2zm37.985 2.016c-2.21-1.512-5.5-2.472-9.101-2.472-5.544 0-9.168 2.64-9.168 7.008 0 3.456 2.472 5.76 7.584 6.384l2.64.312c3.095.384 4.585 1.44 4.585 3.12 0 2.256-2.3 3.48-6.049 3.48-3.816 0-6.096-1.104-7.8-2.424l-1.824 2.928c3 2.256 6.792 2.928 9.6 2.928 6.213 0 10.103-2.808 10.103-7.152 0-3.768-2.85-5.808-7.703-6.456l-2.64-.336c-2.76-.336-4.416-1.176-4.416-3 0-2.064 2.016-3.384 5.136-3.384 3.003 0 5.903 1.128 7.343 2.112l1.71-3.048zm10.7-13.776h-3.91V573h3.91v-12.792c0-4.248 3.07-6.768 6.75-6.768 3.96 0 6.26 2.472 6.26 6.672V573h3.94v-14.16c0-5.472-3.89-9.12-9.51-9.12-2.64 0-5.57.864-7.44 3.432V538.44zm35.33 11.28c-6.91 0-12.05 5.112-12.05 11.88 0 6.768 5.14 11.88 12.05 11.88 6.91 0 12.07-5.112 12.07-11.88 0-6.768-5.16-11.88-12.07-11.88zm0 3.696c4.56 0 8.04 3.408 8.04 8.184s-3.48 8.208-8.04 8.208c-4.58 0-8.04-3.432-8.04-8.208s3.46-8.184 8.04-8.184zm39.22-3.216h-3.94v12.888c0 4.656-2.76 6.72-6.45 6.72-3.72 0-6.48-2.064-6.48-6.72V550.2h-3.94v13.248c0 6.888 4.92 10.032 10.42 10.032 5.45 0 10.39-3.144 10.39-10.032V550.2zm11.98-11.76h-3.91V573h3.91v-34.56zm18 11.28c-6.41 0-11.4 4.992-11.4 11.88 0 6.888 4.99 11.88 11.4 11.88 3.57 0 6.24-1.392 8.04-3.528V573h3.93v-34.56h-3.93v14.832c-1.8-2.16-4.47-3.552-8.04-3.552zm.45 3.696c4.61 0 7.83 3.528 7.83 8.184 0 4.68-3.22 8.208-7.83 8.208-4.68 0-7.84-3.672-7.84-8.208s3.09-8.184 7.84-8.184zm47.78-3.216h-9.58v-7.152h-3.93v7.152h-4.88v3.576h4.88v11.184c0 5.808 2.95 8.52 7.89 8.52 2.81 0 5.09-.984 6.84-2.256l-1.85-2.952c-1.29.888-2.97 1.536-4.65 1.536-2.47 0-4.3-1.488-4.3-4.92v-11.112h9.58V550.2zm16.54-.48c-6.91 0-12.05 5.112-12.05 11.88 0 6.768 5.14 11.88 12.05 11.88 6.91 0 12.07-5.112 12.07-11.88 0-6.768-5.16-11.88-12.07-11.88zm0 3.696c4.56 0 8.04 3.408 8.04 8.184s-3.48 8.208-8.04 8.208c-4.58 0-8.04-3.432-8.04-8.208s3.46-8.184 8.04-8.184zm28.97-3.696c-6.91 0-12.05 5.112-12.05 11.88 0 6.768 5.14 11.88 12.05 11.88 6.91 0 12.07-5.112 12.07-11.88 0-6.768-5.16-11.88-12.07-11.88zm0 3.696c4.56 0 8.04 3.408 8.04 8.184s-3.48 8.208-8.04 8.208c-4.58 0-8.04-3.432-8.04-8.208s3.46-8.184 8.04-8.184z" fill="#fff"/></svg>